<svg xmlns="http://www.w3.org/2000/svg" viewBox="0 0 100 100"><style>path{fill:#fff}@media(prefers-color-scheme:light){path{fill:#0a0a0a}}</style><path fill-rule="evenodd" d="M9.63,9.00 L9.70,28.65 L12.34,24.90 L15.35,21.45 L18.44,18.53 L23.21,15.07 L28.14,12.44 L32.49,10.81 L36.46,9.77 L41.68,9.00ZM48.06,9.00 L53.41,9.79 L58.98,11.37 L63.75,13.48 L67.59,15.75 L70.93,13.77 L76.33,11.35 L81.90,9.78 L87.11,9.00ZM90.38,20.51 L86.53,20.88 L82.56,21.68 L78.08,23.31 L76.79,24.10 L78.98,27.08 L80.59,29.67 L82.43,33.27 L83.53,36.02 L84.55,39.26 L85.37,43.05 L85.89,47.42 L85.94,51.13 L85.60,55.50 L85.10,58.41 L83.50,64.11 L82.18,67.29 L80.57,70.38 L78.72,73.30 L76.79,75.90 L78.72,76.98 L82.43,78.29 L86.27,79.09 L90.38,79.47ZM38.90,78.68 L39.03,78.42 L39.01,58.54 L37.43,57.09 L35.93,55.07 L35.10,53.25 L34.58,50.33 L34.87,47.55 L35.64,45.43 L36.72,43.71 L38.84,41.69 L39.03,41.32 L39.03,21.58 L38.84,21.29 L36.20,21.95 L33.83,22.78 L29.22,25.16 L25.35,28.08 L23.20,30.20 L21.62,32.07 L18.69,36.69 L16.85,41.19 L15.80,45.83 L15.50,50.60 L16.02,55.50 L17.38,60.33 L19.24,64.32 L22.15,68.58 L25.34,71.92 L26.93,73.25 L30.10,75.38 L34.61,77.51 L37.12,78.32 L38.90,78.68ZM50.92,38.54 L51.81,35.63 L53.68,31.43 L55.27,28.58 L58.40,24.10 L57.66,23.55 L55.14,22.49 L50.90,21.29 L50.71,21.58 L50.70,38.14 L50.77,38.59 L50.92,38.54ZM67.72,68.35 L70.25,64.77 L71.32,62.78 L72.63,59.60 L73.42,56.87 L73.94,54.17 L74.24,49.40 L73.72,44.50 L72.92,41.32 L72.14,39.07 L69.71,34.35 L67.59,31.59 L66.13,33.37 L64.80,35.49 L62.68,40.13 L61.89,42.70 L61.35,45.30 L61.08,47.42 L61.01,50.60 L61.11,52.72 L61.58,55.89 L62.95,60.59 L63.75,62.49 L65.34,65.38 L67.46,68.40 L67.72,68.35ZM51.02,78.68 L55.80,77.27 L58.15,76.16 L58.39,75.90 L56.07,72.68 L53.95,69.11 L52.09,65.03 L50.90,61.46 L50.70,61.86 L50.71,78.42 L50.77,78.63 L51.02,78.68ZM41.69,91.00 L36.46,90.23 L32.35,89.15 L27.58,87.31 L23.21,84.93 L18.44,81.47 L15.08,78.28 L12.34,75.10 L9.83,71.36 L9.62,71.66 L9.63,91.00ZM87.11,91.00 L81.90,90.22 L77.01,88.88 L71.96,86.79 L67.59,84.25 L63.22,86.78 L58.85,88.66 L53.41,90.21 L48.07,91.00Z"/></svg>