<svg xmlns="http://www.w3.org/2000/svg" viewBox="0 0 100 100"><style>path{fill:#fff}@media(prefers-color-scheme:light){path{fill:#0a0a0a}}</style><path fill-rule="evenodd" d="M9.63,2.00 L9.70,21.65 L12.34,17.90 L15.35,14.45 L18.44,11.53 L23.21,8.07 L28.14,5.44 L32.49,3.81 L36.46,2.77 L41.68,2.00ZM48.06,2.00 L53.41,2.79 L58.98,4.37 L63.75,6.48 L67.59,8.75 L70.93,6.77 L76.33,4.35 L81.90,2.78 L87.11,2.00ZM90.38,13.51 L86.53,13.88 L82.56,14.68 L78.08,16.31 L76.79,17.10 L78.98,20.08 L80.59,22.67 L82.43,26.27 L83.53,29.02 L84.55,32.26 L85.37,36.05 L85.89,40.42 L85.94,44.13 L85.60,48.50 L85.10,51.41 L83.50,57.11 L82.18,60.29 L80.57,63.38 L78.72,66.30 L76.79,68.90 L78.72,69.98 L82.43,71.29 L86.27,72.09 L90.38,72.47ZM38.90,71.68 L39.03,71.42 L39.01,51.54 L37.43,50.09 L35.93,48.07 L35.10,46.25 L34.58,43.33 L34.87,40.55 L35.64,38.43 L36.72,36.71 L38.84,34.69 L39.03,34.32 L39.03,14.58 L38.84,14.29 L36.20,14.95 L33.83,15.78 L29.22,18.16 L25.35,21.08 L23.20,23.20 L21.62,25.07 L18.69,29.69 L16.85,34.19 L15.80,38.83 L15.50,43.60 L16.02,48.50 L17.38,53.33 L19.24,57.32 L22.15,61.58 L25.34,64.92 L26.93,66.25 L30.10,68.38 L34.61,70.51 L37.12,71.32 L38.90,71.68ZM50.92,31.54 L51.81,28.63 L53.68,24.43 L55.27,21.58 L58.40,17.10 L57.66,16.55 L55.14,15.49 L50.90,14.29 L50.71,14.58 L50.70,31.14 L50.77,31.59 L50.92,31.54ZM67.72,61.35 L70.25,57.77 L71.32,55.78 L72.63,52.60 L73.42,49.87 L73.94,47.17 L74.24,42.40 L73.72,37.50 L72.92,34.32 L72.14,32.07 L69.71,27.35 L67.59,24.59 L66.13,26.37 L64.80,28.49 L62.68,33.13 L61.89,35.70 L61.35,38.30 L61.08,40.42 L61.01,43.60 L61.11,45.72 L61.58,48.89 L62.95,53.59 L63.75,55.49 L65.34,58.38 L67.46,61.40 L67.72,61.35ZM51.02,71.68 L55.80,70.27 L58.15,69.16 L58.39,68.90 L56.07,65.68 L53.95,62.11 L52.09,58.03 L50.90,54.46 L50.70,54.86 L50.71,71.42 L50.77,71.63 L51.02,71.68ZM41.69,84.00 L36.46,83.23 L32.35,82.15 L27.58,80.31 L23.21,77.93 L18.44,74.47 L15.08,71.28 L12.34,68.10 L9.83,64.36 L9.62,64.66 L9.63,84.00ZM87.11,84.00 L81.90,83.22 L77.01,81.88 L71.96,79.79 L67.59,77.25 L63.22,79.78 L58.85,81.66 L53.41,83.21 L48.07,84.00Z"/></svg>